<?xml version="1.0" encoding="UTF-8"?>
<svg xmlns="http://www.w3.org/2000/svg"
     width="348" height="192" viewBox="0 0 348 192">
  <g id="Tiles">
    <g id="unit_single_1" class="tile" data-id="unit_single">
      <path class="face-up" d="M174,162L180,156L168,156L174,162Z" style="fill:#f5c800;fill-rule:nonzero;"/>
                  <path class="face-left" d="M174,162L168,168L168,156L174,162Z" style="fill:#1034a6;fill-rule:nonzero;"/>
                  <path class="face-down" d="M174,162L180,168L168,168L174,162Z" style="fill:#090700;fill-rule:nonzero;"/>
                  <path class="face-right" d="M174,162L180,168L180,156L174,162Z" style="fill:#ec1f27;fill-rule:nonzero;"/>
    </g>
    <g id="unit_single_2" class="tile" data-id="unit_single">
      <path class="face-up" d="M210,90L216,84L204,84L210,90Z" style="fill:#f5c800;fill-rule:nonzero;"/>
                  <path class="face-left" d="M210,90L204,96L204,84L210,90Z" style="fill:#1034a6;fill-rule:nonzero;"/>
                  <path class="face-down" d="M210,90L216,96L204,96L210,90Z" style="fill:#090700;fill-rule:nonzero;"/>
                  <path class="face-right" d="M210,90L216,96L216,84L210,90Z" style="fill:#ec1f27;fill-rule:nonzero;"/>
    </g>
    <g id="unit_single_3" class="tile" data-id="unit_single">
      <path class="face-up" d="M174,42L180,36L168,36L174,42Z" style="fill:#f5c800;fill-rule:nonzero;"/>
                  <path class="face-left" d="M174,42L168,48L168,36L174,42Z" style="fill:#1034a6;fill-rule:nonzero;"/>
                  <path class="face-down" d="M174,42L180,48L168,48L174,42Z" style="fill:#090700;fill-rule:nonzero;"/>
                  <path class="face-right" d="M174,42L180,48L180,36L174,42Z" style="fill:#ec1f27;fill-rule:nonzero;"/>
    </g>
    <g id="unit_single_4" class="tile" data-id="unit_single">
      <path class="face-up" d="M102,66L108,60L96,60L102,66Z" style="fill:#f5c800;fill-rule:nonzero;"/>
                  <path class="face-left" d="M102,66L96,72L96,60L102,66Z" style="fill:#1034a6;fill-rule:nonzero;"/>
                  <path class="face-down" d="M102,66L108,72L96,72L102,66Z" style="fill:#090700;fill-rule:nonzero;"/>
                  <path class="face-right" d="M102,66L108,72L108,60L102,66Z" style="fill:#ec1f27;fill-rule:nonzero;"/>
    </g>
    <g id="corner_TR_1" class="tile" data-id="corner_TR">
      <path class="face-up" d="M126,150L132,144L120,144L120,150L126,150Z" style="fill:#f5c800;fill-rule:nonzero;"/>
                  <path class="face-left" d="M126,156L126,150L122.958,153L120,156L126,156Z" style="fill:#1034a6;fill-rule:nonzero;"/>
                  <path class="face-right" d="M126,150L126,156L132,156L132,144L126,150Z" style="fill:#ec1f27;fill-rule:nonzero;"/>
                  <path class="face-down" d="M120,150L120,156L122.958,153L126,150L120,150Z" style="fill:#090700;fill-rule:nonzero;"/>
    </g>
    <g id="end_left_1" class="tile" data-id="end_left">
      <path class="face-up" d="M120,144L120,150L114,150L108,144L120,144Z" style="fill:#f5c800;fill-rule:nonzero;"/>
                  <path class="face-down" d="M120,156L120,150L114,150L108,156L120,156Z" style="fill:#090700;fill-rule:nonzero;"/>
                  <path class="face-left" d="M114,150L108,144L108,156L114,150Z" style="fill:#1034a6;fill-rule:nonzero;"/>
    </g>
    <g id="end_bottom_1" class="tile" data-id="end_bottom">
      <path class="face-down" d="M132,168L126,162L120,168L132,168Z" style="fill:#090700;fill-rule:nonzero;"/>
                  <path class="face-left" d="M126,162L120,168L120,156L126,156.014L126,162Z" style="fill:#1034a6;fill-rule:nonzero;"/>
                  <path class="face-right" d="M126,162L132,168L132,156L126,156.014L126,162Z" style="fill:#ec1f27;fill-rule:nonzero;"/>
    </g>
    <g id="Tjoint_vert_L_1" class="tile" data-id="Tjoint_vert_L">
      <path class="face-left" d="M42,84L42,72L36,72L42,78L36,84L42,84Z" style="fill:#1034a6;fill-rule:nonzero;"/>
                  <rect class="face-right" x="5100.168" y="3000" width="600" height="1200" style="fill:#ec1f27;"/>
                  <path class="face-up" d="M36,78L36,72L42,78L36,78Z" style="fill:#f5c800;fill-rule:nonzero;"/>
                  <path class="face-down" d="M36,78L36,84L42,78L36,78Z" style="fill:#090700;fill-rule:nonzero;"/>
    </g>
    <g id="end_top_1" class="tile" data-id="end_top">
      <path class="face-up" d="M48,60L42,66L36,60L48,60Z" style="fill:#f5c800;fill-rule:nonzero;"/>
                  <path class="face-left" d="M42,66L36,60L36,72L42,72L42,66Z" style="fill:#1034a6;fill-rule:nonzero;"/>
                  <path class="face-right" d="M42,66L48,60L48,71.986L42,72L42,66Z" style="fill:#ec1f27;fill-rule:nonzero;"/>
    </g>
    <g id="end_bottom_2" class="tile" data-id="end_bottom">
      <path class="face-down" d="M48,96L42,90L36,96L48,96Z" style="fill:#090700;fill-rule:nonzero;"/>
                  <path class="face-left" d="M42,90L36,96L36,84L42,84.014L42,90Z" style="fill:#1034a6;fill-rule:nonzero;"/>
                  <path class="face-right" d="M42,90L48,96L48,84L42,84.014L42,90Z" style="fill:#ec1f27;fill-rule:nonzero;"/>
    </g>
    <g id="end_left_2" class="tile" data-id="end_left">
      <path class="face-up" d="M36,72L36,78L30,78L24,72L36,72Z" style="fill:#f5c800;fill-rule:nonzero;"/>
                  <path class="face-down" d="M36,84L36,78L30,78L24,84L36,84Z" style="fill:#090700;fill-rule:nonzero;"/>
                  <path class="face-left" d="M30,78L24,72L24,84L30,78Z" style="fill:#1034a6;fill-rule:nonzero;"/>
    </g>
    <g id="end_left_3" class="tile" data-id="end_left">
      <path class="face-up" d="M84,24L84,30L78,30L72,24L84,24Z" style="fill:#f5c800;fill-rule:nonzero;"/>
                  <path class="face-down" d="M84,36L84,30L78,30L72,36L84,36Z" style="fill:#090700;fill-rule:nonzero;"/>
                  <path class="face-left" d="M78,30L72,24L72,36L78,30Z" style="fill:#1034a6;fill-rule:nonzero;"/>
    </g>
    <g id="line_horiz_1" class="tile" data-id="line_horiz">
      <rect class="face-down" x="1500.002" y="600" width="1199.996" height="600" style="fill:#090700;"/>
                  <rect class="face-up" x="1500.001" y="0" width="1200" height="600" style="fill:#f5c800;"/>
    </g>
    <g id="end_right_1" class="tile" data-id="end_right">
      <path class="face-up" d="M108,24L101.99,30.007L96,30L96,24L108,24Z" style="fill:#f5c800;fill-rule:nonzero;"/>
                  <path class="face-down" d="M108,36L102,30L96,30L96,36L108,36Z" style="fill:#090700;fill-rule:nonzero;"/>
                  <path class="face-right" d="M102,30L108,24L108,36L102,30Z" style="fill:#ec1f27;fill-rule:nonzero;"/>
    </g>
  </g>
  <g id="Ribbon_Mesh">
    <g id="p_0">
      <path id="p_0" d="M 150,66 L 150.93,58.44 L 176.87,84.38 L 177.27,93.27 Z" fill="#ec1f27" stroke="none"/>
    </g>
    <g id="p_1">
      <path id="p_1" d="M 150,66 L 156,80.49 L 169.16,93.64 L 177.27,93.27 Z" fill="#1034A6" stroke="none"/>
    </g>
    <g id="p_2">
      <path id="p_2" d="M 177.27,93.27 L 185.39,92.9 L 218.75,126.26 L 222,138 Z" fill="#ec1f27" stroke="none"/>
    </g>
    <g id="p_3">
      <path id="p_3" d="M 177.27,93.27 L 177.68,102.16 L 220.49,144.97 L 222,138 Z" fill="#1034A6" stroke="none"/>
    </g>
    <g id="p_4">
      <path id="p_4" d="M 222,138 L 230.59,128.37 L 264,115.84 L 270,120 Z" fill="#f5c800" stroke="none"/>
    </g>
    <g id="p_5">
      <path id="p_5" d="M 222,138 L 220.49,144.97 L 264,128.66 L 270,120 Z" fill="#090700" stroke="none"/>
    </g>
    <g id="p_6">
      <path id="p_6" d="M 270,120 L 276,111.34 L 324,93.34 L 318,102 Z" fill="#f5c800" stroke="none"/>
    </g>
    <g id="p_7">
      <path id="p_7" d="M 270,120 L 276,124.16 L 312,110.66 L 318,102 Z" fill="#090700" stroke="none"/>
    </g>
    <g id="p_8">
      <path id="p_8" d="M 318,102 L 324,93.34 L 324,168 L 318,162 Z" fill="#ec1f27" stroke="none"/>
    </g>
    <g id="p_9">
      <path id="p_9" d="M 318,102 L 312,110.66 L 312,156 L 318,162 Z" fill="#1034A6" stroke="none"/>
    </g>
    <g id="p_10">
      <path id="p_10" d="M 318,162 L 324,168 L 264,168 L 270,162 Z" fill="#090700" stroke="none"/>
    </g>
    <g id="p_11">
      <path id="p_11" d="M 318,162 L 312,156 L 276,156 L 270,162 Z" fill="#f5c800" stroke="none"/>
    </g>
    <g id="p_12">
      <path id="p_12" d="M 270,162 L 264,168 L 264,128.66 L 270,120 Z" fill="#1034A6" stroke="none"/>
    </g>
    <g id="p_13">
      <path id="p_13" d="M 270,162 L 276,156 L 276,124.16 L 270,120 Z" fill="#ec1f27" stroke="none"/>
    </g>
    <g id="p_14">
      <path id="p_14" d="M 270,120 L 264,115.84 L 264,82.06 L 270,78 Z" fill="#1034A6" stroke="none"/>
    </g>
    <g id="p_15">
      <path id="p_15" d="M 270,120 L 276,111.34 L 276,73.94 L 270,78 Z" fill="#ec1f27" stroke="none"/>
    </g>
    <g id="p_16">
      <path id="p_16" d="M 270,78 L 264,82.06 L 211.82,61.19 L 210,54 Z" fill="#090700" stroke="none"/>
    </g>
    <g id="p_17">
      <path id="p_17" d="M 270,78 L 276,73.94 L 208.18,46.81 L 210,54 Z" fill="#f5c800" stroke="none"/>
    </g>
    <g id="p_18">
      <path id="p_18" d="M 210,54 L 211.82,61.19 L 185.39,92.9 L 177.27,93.27 Z" fill="#ec1f27" stroke="none"/>
    </g>
    <g id="p_19">
      <path id="p_19" d="M 210,54 L 208.18,46.81 L 176.87,84.38 L 177.27,93.27 Z" fill="#1034A6" stroke="none"/>
    </g>
    <g id="p_20">
      <path id="p_20" d="M 177.27,93.27 L 177.68,102.16 L 151.82,133.19 L 150,126 Z" fill="#ec1f27" stroke="none"/>
    </g>
    <g id="p_21">
      <path id="p_21" d="M 177.27,93.27 L 169.16,93.64 L 156,109.43 L 150,126 Z" fill="#1034A6" stroke="none"/>
    </g>
    <g id="p_22">
      <path id="p_22" d="M 150,126 L 144,117.14 L 144,76.6 L 150,66 Z" fill="#1034A6" stroke="none"/>
    </g>
    <g id="p_23">
      <path id="p_23" d="M 150,126 L 156,109.43 L 156,80.49 L 150,66 Z" fill="#ec1f27" stroke="none"/>
    </g>
    <g id="p_24">
      <path id="p_24" d="M 150,66 L 144,76.6 L 103.46,100.92 L 90,102 Z" fill="#090700" stroke="none"/>
    </g>
    <g id="p_25">
      <path id="p_25" d="M 150,66 L 150.93,58.44 L 76.54,103.08 L 90,102 Z" fill="#f5c800" stroke="none"/>
    </g>
    <g id="p_26">
      <path id="p_26" d="M 90,102 L 103.46,100.92 L 144,117.14 L 150,126 Z" fill="#f5c800" stroke="none"/>
    </g>
    <g id="p_27">
      <path id="p_27" d="M 90,102 L 76.54,103.08 L 151.82,133.19 L 150,126 Z" fill="#090700" stroke="none"/>
    </g>
    <g id="p_28">
      <path id="p_28" d="M 222,138 L 218.75,126.26 L 229.63,82.72 L 234,90 Z" fill="#1034A6" stroke="none"/>
    </g>
    <g id="p_29">
      <path id="p_29" d="M 222,138 L 230.59,128.37 L 241.28,85.63 L 234,90 Z" fill="#ec1f27" stroke="none"/>
    </g>
    <g id="P_30">
      <path id="p_30_c2" d="M 241.28,85.63 L 229.63,82.72 L 234,90 Z" fill="#f5c800" stroke="none"/>
    </g>
  </g>
</svg>